<svg xmlns="http://www.w3.org/2000/svg" version="1.1" xmlns:xlink="http://www.w3.org/1999/xlink" xmlns:svgjs="http://svgjs.com/svgjs" width="16" height="16" x="0" y="0" viewBox="0 0 512 512" style="enable-background:new 0 0 512 512" xml:space="preserve" class=""><g><g xmlns="http://www.w3.org/2000/svg"><g><path d="m37.629 140.723h115.405c5.811 0 10.708-3.937 12.196-9.28h286.243c2.791 0 5.351-1.55 6.646-4.022l28.04-53.581c1.14-2.178 1.14-4.775 0-6.954l-28.04-53.61c-1.293-2.474-3.854-4.024-6.646-4.024h-124.512c-4.143 0-7.5 3.358-7.5 7.5s3.357 7.5 7.5 7.5h119.972l24.116 46.109-24.115 46.082h-281.229v-92.192h126.177c4.143 0 7.5-3.358 7.5-7.5s-3.357-7.5-7.5-7.5h-126.653c-1.491-5.327-6.387-9.251-12.195-9.251h-115.405c-6.971 0-12.643 5.671-12.643 12.643v115.408c0 6.987 5.672 12.672 12.643 12.672zm2.357-125.723h110.719v110.723h-110.719z" fill="#ffffff" data-original="#000000" class=""></path><path d="m458.119 198.899c-1.293-2.474-3.854-4.024-6.646-4.024h-286.25c-1.498-5.328-6.388-9.251-12.189-9.251h-115.405c-6.971 0-12.643 5.685-12.643 12.671v115.408c0 6.971 5.671 12.643 12.643 12.643h115.405c5.808 0 10.703-3.924 12.194-9.251h286.245c2.792 0 5.352-1.55 6.646-4.024l28.04-53.61c1.14-2.177 1.14-4.775 0-6.952zm-307.414 112.448h-110.719v-110.722h110.719zm296.227-9.251h-281.227v-92.22h281.227l24.117 46.11z" fill="#ffffff" data-original="#000000" class=""></path><path d="m101.235 35.251h-11.807c-4.142 0-7.5 3.358-7.5 7.5s3.358 7.5 7.5 7.5h4.308v47.69c0 4.142 3.358 7.5 7.5 7.5s7.5-3.358 7.5-7.5v-55.19c-.001-4.142-3.358-7.5-7.501-7.5z" fill="#ffffff" data-original="#000000" class=""></path><path d="m110.39 276.498c-4.646.06-9.543.103-13.881.121 2.92-3.94 6.738-9.202 11.643-16.212 3.621-5.164 5.993-10.067 7.051-14.573.063-.27.112-.543.145-.819l.259-2.155c.036-.297.054-.596.054-.895 0-11.914-9.705-21.606-21.635-21.606-10.322 0-19.241 7.336-21.209 17.443-.792 4.066 1.863 8.004 5.928 8.795 4.069.793 8.004-1.862 8.795-5.928.599-3.077 3.327-5.311 6.486-5.311 3.535 0 6.434 2.768 6.625 6.241l-.14 1.164c-.491 1.852-1.7 4.838-4.644 9.037-8.766 12.528-13.971 19.334-16.767 22.992-3.469 4.538-5.38 7.037-4.145 11.105.735 2.419 2.553 4.283 5.032 5.128 1 .333 1.849.617 12.635.617 4.244 0 10.026-.044 17.96-.146 4.142-.053 7.457-3.454 7.403-7.596-.053-4.141-3.447-7.488-7.595-7.402z" fill="#ffffff" data-original="#000000" class=""></path><path d="m95.346 405.869c-10.291 0-19.22 7.335-21.231 17.441-.809 4.062 1.829 8.011 5.891 8.82 4.066.812 8.012-1.829 8.82-5.891.62-3.112 3.362-5.37 6.521-5.37 3.643 0 6.606 2.977 6.606 6.635 0 3.659-2.963 6.635-6.606 6.635-4.142 0-7.5 3.358-7.5 7.5s3.358 7.5 7.5 7.5c3.643 0 6.606 2.964 6.606 6.606 0 3.659-2.963 6.635-6.606 6.635-3.294 0-6.115-2.441-6.554-5.62-.058-.442-.081-.736-.081-1.015 0-4.142-3.358-7.5-7.5-7.5s-7.5 3.358-7.5 7.5c0 .944.063 1.854.214 3.008 1.467 10.619 10.675 18.627 21.421 18.627 11.914 0 21.606-9.706 21.606-21.635 0-5.391-1.989-10.323-5.265-14.112 3.276-3.794 5.265-8.732 5.265-14.13-.001-11.929-9.694-21.634-21.607-21.634z" fill="#ffffff" data-original="#000000" class=""></path><path d="m199.317 60.02h46.254c4.142 0 7.5-3.358 7.5-7.5s-3.358-7.5-7.5-7.5h-46.254c-4.142 0-7.5 3.358-7.5 7.5s3.358 7.5 7.5 7.5z" fill="#ffffff" data-original="#000000" class=""></path><path d="m199.317 96.852h94.03c4.143 0 7.5-3.358 7.5-7.5s-3.357-7.5-7.5-7.5h-94.03c-4.142 0-7.5 3.358-7.5 7.5s3.358 7.5 7.5 7.5z" fill="#ffffff" data-original="#000000" class=""></path><path d="m199.317 244.438h46.254c4.142 0 7.5-3.358 7.5-7.5s-3.358-7.5-7.5-7.5h-46.254c-4.142 0-7.5 3.358-7.5 7.5s3.358 7.5 7.5 7.5z" fill="#ffffff" data-original="#000000" class=""></path><path d="m293.347 266.298h-94.03c-4.142 0-7.5 3.358-7.5 7.5s3.358 7.5 7.5 7.5h94.03c4.143 0 7.5-3.358 7.5-7.5s-3.357-7.5-7.5-7.5z" fill="#ffffff" data-original="#000000" class=""></path><path d="m199.317 431.24h46.254c4.142 0 7.5-3.358 7.5-7.5s-3.358-7.5-7.5-7.5h-46.254c-4.142 0-7.5 3.358-7.5 7.5s3.358 7.5 7.5 7.5z" fill="#ffffff" data-original="#000000" class=""></path><path d="m199.317 468.072h94.03c4.143 0 7.5-3.358 7.5-7.5s-3.357-7.5-7.5-7.5h-94.03c-4.142 0-7.5 3.358-7.5 7.5s3.358 7.5 7.5 7.5z" fill="#ffffff" data-original="#000000" class=""></path><path d="m458.119 384.553c-1.294-2.474-3.854-4.024-6.646-4.024h-124.512c-4.143 0-7.5 3.358-7.5 7.5s3.357 7.5 7.5 7.5h119.972l24.116 46.109-24.115 46.083h-281.229v-92.191h126.177c4.143 0 7.5-3.358 7.5-7.5s-3.357-7.5-7.5-7.5h-126.653c-1.491-5.327-6.386-9.251-12.194-9.251h-115.406c-6.971 0-12.643 5.672-12.643 12.643v115.408c0 6.987 5.671 12.671 12.643 12.671h115.405c5.811 0 10.708-3.937 12.196-9.28h286.243c2.791 0 5.351-1.55 6.646-4.022l28.04-53.582c1.14-2.178 1.14-4.776 0-6.954zm-307.414 112.447h-110.719v-110.723h110.719z" fill="#ffffff" data-original="#000000" class=""></path></g></g></g></svg>
