<?xml version="1.0" encoding="UTF-8"?>
<svg class="" width="30" height="30" enable-background="new 0 0 512 512" version="1.1" viewBox="0 0 512 512" xml:space="preserve" xmlns="http://www.w3.org/2000/svg"><g xmlns="http://www.w3.org/2000/svg"><path class="" d="m493.54 131.66-51.181-51.18c-2.93-2.928-7.678-2.929-10.607 0s-2.929 7.678 0 10.606l38.378 38.377h-58.784c-24.852 0-45.069-20.223-45.069-45.08v-58.774l44.496 44.497c1.465 1.464 3.385 2.197 5.304 2.197s3.839-0.732 5.304-2.197c2.929-2.929 2.929-7.678 0-10.606l-57.3-57.3c-1.408-1.407-3.315-2.197-5.305-2.197h-210.87c-31.692 0-57.713 24.666-59.912 55.803-42.223 18.795-71.738 61.146-71.738 110.27 0 22.444 6.211 44.346 17.962 63.336 2.179 3.522 6.801 4.61 10.324 2.432 3.522-2.18 4.611-6.802 2.432-10.324-8.97-14.496-14.249-30.937-15.451-47.945h105.37c1.951 0 3.869-0.762 5.303-2.197l74.467-74.467c16.1 18.544 25.856 42.736 25.856 69.165 0 58.245-47.385 105.63-105.63 105.63-27.123 0-52.904-10.266-72.594-28.906-3.009-2.848-7.755-2.717-10.603 0.29-2.848 3.008-2.718 7.755 0.29 10.603 10.052 9.517 21.498 17.116 33.846 22.617v175.63c0 33.123 26.952 60.07 60.08 60.07h287.75c33.128 0 60.08-26.947 60.08-60.07v-314.97c1e-3 -1.989-0.789-3.897-2.195-5.303zm-364.15-70.948v97.86h-97.865c3.686-52.28 45.584-94.176 97.865-97.86zm15 0c23.492 1.657 44.889 11.025 61.664 25.589l-61.664 61.664zm291.27 436.29h-287.75c-24.857 0-45.08-20.218-45.08-45.07v-170.11c10.943 3.211 22.393 4.876 34.06 4.876 66.516 0 120.63-54.115 120.63-120.63s-54.113-120.63-120.63-120.63c-11.406 0-22.446 1.592-32.912 4.564 4.588-20.02 22.536-35.004 43.932-35.004h203.37v69.38c0 33.128 26.947 60.08 60.069 60.08h69.391v307.47c0 24.852-20.222 45.07-45.08 45.07z" data-original="#000000"/><path class="" d="m310.07 286.82h-36.563c-10.911 0-19.787 8.876-19.787 19.787v149.77c0 10.91 8.876 19.787 19.787 19.787h36.563c10.91 0 19.786-8.876 19.786-19.787v-149.78c1e-3 -10.91-8.875-19.786-19.786-19.786zm4.787 169.56c0 2.639-2.147 4.787-4.786 4.787h-36.563c-2.64 0-4.787-2.147-4.787-4.787v-149.77c0-2.639 2.147-4.787 4.787-4.787h36.563c2.639 0 4.786 2.147 4.786 4.787z" data-original="#000000"/><path class="" d="m409.78 231.92h-36.563c-10.91 0-19.786 8.876-19.786 19.787v204.68c0 10.91 8.876 19.787 19.786 19.787h36.563c10.91 0 19.787-8.876 19.787-19.787v-204.68c0-10.91-8.877-19.786-19.787-19.786zm4.787 224.46c0 2.639-2.147 4.787-4.787 4.787h-36.563c-2.639 0-4.786-2.147-4.786-4.787v-204.68c0-2.639 2.147-4.787 4.786-4.787h36.563c2.64 0 4.787 2.147 4.787 4.787z" data-original="#000000"/><path class="" d="m210.35 360.52h-36.563c-10.91 0-19.787 8.876-19.787 19.787v76.08c0 10.91 8.876 19.787 19.787 19.787h36.563c10.91 0 19.787-8.876 19.787-19.787v-76.08c0-10.91-8.877-19.787-19.787-19.787zm4.787 95.866c0 2.639-2.147 4.787-4.787 4.787h-36.563c-2.639 0-4.787-2.147-4.787-4.787v-76.08c0-2.639 2.147-4.787 4.787-4.787h36.563c2.639 0 4.787 2.147 4.787 4.787z" data-original="#000000"/><path class="" d="m423.51 158.57h-124.95c-4.143 0-7.5 3.358-7.5 7.5s3.357 7.5 7.5 7.5h124.95c4.143 0 7.5-3.358 7.5-7.5s-3.358-7.5-7.5-7.5z" data-original="#000000"/><path class="" d="m423.51 187.68h-84.555c-4.143 0-7.5 3.358-7.5 7.5s3.357 7.5 7.5 7.5h84.555c4.143 0 7.5-3.358 7.5-7.5s-3.358-7.5-7.5-7.5z" data-original="#000000"/></g></svg>
