<svg xmlns="http://www.w3.org/2000/svg" version="1.1" xmlns:xlink="http://www.w3.org/1999/xlink" xmlns:svgjs="http://svgjs.com/svgjs" width="16" height="16" x="0" y="0" viewBox="0 0 16.933333 16.933333" style="enable-background:new 0 0 512 512" xml:space="preserve" class=""><g><g xmlns="http://www.w3.org/2000/svg" id="layer2"><path id="path820" d="m3.1734511.00000392c-1.7518706 0-3.1734511 1.42423228-3.1734511 3.17400078 0 1.7497662 1.4178005 3.1739995 3.1734511 3.1739995 1.7556407 0 3.1760312-1.4242333 3.1760312-3.1739995 0-1.7497685-1.4241605-3.17400078-3.1760312-3.17400078zm10.5838449 0c-1.751871 0-3.173451 1.42423228-3.173451 3.17400078 0 1.7497662 1.4178 3.1739995 3.173451 3.1739995 1.75564 0 3.176031-1.4242333 3.176031-3.1739995 0-1.7497685-1.424161-3.17400078-3.176031-3.17400078zm-10.5838449.52968913c1.4555505 0 2.6468609 1.18052025 2.6468609 2.64431165 0 1.4637894-1.1954503 2.6463777-2.6468609 2.6463777-1.4514205 0-2.64428093-1.1825883-2.64428093-2.6463777 0-1.4637914 1.18873043-2.64431165 2.64428093-2.64431165zm10.5838449 0c1.45555 0 2.646861 1.18052025 2.646861 2.64431165 0 1.4637894-1.195451 2.6463777-2.646861 2.6463777-1.451421 0-2.644281-1.1825883-2.644281-2.6463777 0-1.4637914 1.18873-2.64431165 2.644281-2.64431165zm-10.5828149.3963621c-.1296701-.0007594-.26562.08632-.26562.26407005v.253217c-.5183502.1167471-.9120804.5683652-.9120804 1.1224243 0 .3901022.1968901.613088.4335602.7286451.2366701.1155581.4886.1323052.7167503.156064.2281601.023799.43343.05441.53899.1059381.0653.0363.1369403.07141.1369403.251667 0 .3378232-.2782002.6198421-.6387204.6232243-.30264-.0059-.5401001-.1918142-.6407902-.5234883-.11606-.3333129-.6014702-.1787739-.5053902.1601992.1702501.527366.5245002.770358.8707404.8593883v.232546c0 .3580768.52917.3447101.52917 0v-.2299621c.5194103-.116372.9141503-.5732771.9141604-1.1219074 0-.384922-.1969001-.6110111-.4335703-.7265781-.2366698-.1155581-.48859-.1323059-.71675-.156065-.2281501-.023799-.4334303-.05591-.5389903-.107488-.0785-.0383-.13694-.08911-.13694-.2521831 0-.3440141.27821-.6136431.6387202-.6170231.3243701.0126.5349401.183028.6407902.5178031.1130001.3269231.5961802.1879148.5059102-.1586491-.131-.4143011-.40965-.7412331-.8733304-.8588712v-.258901c0-.1746791-.13388-.26331005-.26355-.26407005zm10.5838449 0c-.12967-.0007594-.26561.08632-.26561.26407005v.253217c-.51835.1167471-.912091.5683652-.912091 1.1224243 0 .3901022.196891.613088.433561.7286451.23667.1155581.4886.1323052.71675.156064.22816.023799.43343.05441.53899.1059381.0653.0363.13694.07141.13694.251667 0 .3378232-.2782.6198421-.63872.6232243-.30264-.0059-.5401-.1918142-.64079-.5234883-.11606-.3333129-.601471-.1787739-.505391.1601992.170251.527366.524511.770358.870751.8593883v.232546c0 .3580768.52916.3447101.52916 0v-.2299621c.51941-.116372.91415-.5732771.91416-1.1219074 0-.384922-.1969-.6110111-.43357-.7265781-.23667-.1155581-.48859-.1323059-.71675-.156065-.22815-.023799-.43342-.05591-.53898-.107488-.0785-.0383-.13695-.08911-.13695-.2521831 0-.3440141.27821-.6136431.63872-.6170231.32437.0126.53494.183028.64079.5178031.113.3269231.59618.1879148.50591-.1586491-.131-.4143011-.40965-.7412331-.87333-.8588712v-.258901c0-.1746791-.13388-.26331005-.26355-.26407005zm-4.8167528 1.24799925.2067.2072251h-2.0034907c-.3534701 0-.3534701.5291721 0 .5291721h2.6442812c.2353013 0 .3542213-.2850181.1875801-.4511401l-.6619706-.6599152c-.25096-.250176-.6207001.1264421-.3731.3746581zm-1.7967907 1.2655693c-.2377301 0-.3562201.2856421-.18759.453207l.6547403.6506132c.2610898.2594401.63574-.116775.37414-.3756909l-.2010202-.1989573h2.0040111c.3546513 0 .3546513-.529172 0-.529172zm6.4952035 3.6799179-1.212321.6960889c-.33928.1948076-.484431.6203516-.28836.9580915l.0315.05426c-.5512.1959948-1.12284.1501208-1.54099.07958-.6837812-.120899-1.4724319-.1465421-2.1771221-.06615-.5325899.05764-1.3805103.2271911-1.7570006.7002226l-1.6960205-.3369334.024299-.04186c.200608-.3455883.0886053-.7895145-.26717-.9937494l-1.2107802-.6950553c-.3521271-.2021406-.7987666-.0794297-.9994202.2661372l-2.44791037 4.2158073c-.20456225.352298-.07876291.794779.26769008.993748l1.21026049.695055c.34966.20081.7726202.07009.9560103-.200506l.6826502.509535c-.21896.40485-.071.903443.3240102 1.130176.1161.06664.2370001.10154.3632802.109038-.0573.338115.1000598.690086.4139299.870241.2513502.144272.5466704.146412.7916804.02842.0832.161513.1852201.264563.3338303.35037.2511398.144155.5478199.146123.7927201.02842.0717.143349.1845301.266307.3327902.351404.4024001.230974.9251101.09109 1.1580703-.310062l.12764-.219627c.29072.16757.5813601.334603.8723003.501783.4062502.234569.9235607.09264 1.1565208-.308511.0578-.09949.0919-.20146.10542-.309546.3966112.17891.8630512.03044 1.0821012-.346752.067-.11536.10433-.236686.11214-.362256.34025.05832.69075-.09218.87281-.405664.0577-.09934.0955-.205243.10904-.313163.3977.179141.862101.03082 1.081071-.346236.18597-.303355.10144-.643151.0548-.738464l1.06453-1.057828c.19815.343243.644439.428054.98134.234614l1.212331-.696089c.33895-.194617.482932-.619355.2868-.957057-.742488-1.2784225-1.488062-2.5551306-2.227261-3.8354614-.179558-.3110031-.607359-.4443819-.97721-.232021zm.51987.4945489c.04489.077734 1.484422 2.5570355 2.226731 3.8354655.03891.06701.006.17948-.0946.237197-.404252.23198-1.138057.653462-1.212321.696089-.10136.05818-.215329.03033-.25425-.03669-.043-.07404-1.474904-2.5633558-2.227771-3.8359821-.03947-.066726-.009-.176811.0951-.2366802.404075-.2323877 1.212841-.6960889 1.212841-.6960889.115453-.066262.217859-.026358.25427.03669zm-10.878925.3157462c.4037668.2318574 1.1293345.6485068 1.2113005.6955722.0977.0561.1310191.1746638.0734.273888-.8160014 1.4052131-2.4011638 4.1339281-2.4484307 4.2158071-.053403.09251-.1734802.129764-.2744001.07183 0 0-.8071224-.463482-1.21078049-.695054-.0912-.05232-.13205005-.173096-.0744-.272337.0473-.08137 1.63544012-2.8085507 2.44791102-4.2158082.056759-.098311.1790256-.1292396.2753998-.073898zm9.159134 1.3601379c.556601.9532764 1.094151 1.8893834 1.644341 2.8463684-.3558.355827-.84812.843455-1.12861 1.123974l-4.7020431-2.698056c-.11829-.06787-.2691001-.03544-.3477801.07597-.3055301.432591-.7836402.873383-1.1797703 1.10382-.1980602.115218-.3729002.173273-.4635403.174668-.0608.000926-.0924-.000609-.11007-.07545-.005-.02154-.005-.147954.0424-.310579.0486-.176061.1360801-.39102.24391-.609271.2156402-.436511.5450103-.9279263.7012503-1.0841863.2344702-.234493.7265003-.3965021 1.3730406-.4702601.64654-.07376 1.3981207-.04835 2.0252019.06253.69266.122466 1.22458.06266 1.5875-.03359.106336-.028493.209949-.060679.31417-.105939zm-7.7209733.3989461 1.6288406.3240143c-.1341901.206716-.2670702.436776-.3834401.672318-.1182101.239272-.2190801.479956-.2811202.704874-.0543.202687-.1018799.442043-.0186.663016.0977.259165.3274501.402088.6061602.392228.2437-.0063.4939002-.112387.7208903-.244432.41799-.243155.8606202-.640129 1.1999202-1.064546l4.4788023 2.570413c.156792.08998.203769.280589.117301.429435-.08648.14887-.27833.205369-.435111.11524-1.030279-.592279-2.6284518-1.506379-3.080432-1.767352-.3045606-.175853-.5702759.282885-.2635502.458891l2.4747822 1.420083c.156854.09001.200865.281953.11524.429436-.08562.147466-.278873.205396-.43564.115241-.705963-.405992-1.4125718-.811352-2.119242-1.216994-.3061908-.175759-.5698103.28377-.2635502.459408.5724898.328321 1.145581.656046 1.7177222.984964.15603.09024.199669.280397.1142.428402-.08548.148028-.278895.20545-.43563.11524-.4708578-.271007-.9426022-.539896-1.4118021-.810813-.3057303-.176529-.5699004.283417-.2651002.45941.26729.154334.5405196.309052.8077103.462508.1568189.09007.2013707.283411.1162696.429953-.0851.14654-.2795074.205611-.4361498.115239-.3079784-.177682-.6137602-.352852-.9219102-.530205.0443-.328955-.1059301-.666405-.4159902-.845436-.14799-.085451-.3118502-.122314-.4723301-.112656-.0197009-.270054-.1696102-.52358-.4206403-.667667-.1480601-.08498-.3108001-.122502-.47129-.112656-.0197008-.270054-.1706502-.52358-.4216801-.667666-.3779502-.216942-.8574805-.115491-1.1125905.237197-.0658-.08638-.14679-.156708-.2465002-.213942-.3261099-.188298-.72372-.135971-.9854703.09715l-.7152002-.533306zm.8790101 4.1677433c.1502706.08676.2051303.27613.1152402.430986-.23864.411086-.4921101.847054-.6991803 1.203557-.0899.154833-.2816199.201048-.4320102.114723-.1504001-.08632-.20764-.275045-.1178298-.429952.2429799-.419131.4495201-.774874.6986701-1.204591.083596-.144792.2720703-.208854.43511-.114723zm-1.3596003.02326c.150475.08688.2067299.274609.1167901.429436l-.1167901.201021c-.0899.154828-.2847502.201696-.4335701.116274-.14882-.08542-.2064402-.27702-.1167901-.43202l.11628-.201023c.083585-.144773.2714727-.207569.4340802-.113688zm2.2525707.757067c.1481622.08554.20475.2762.1152401.430987-.15512.267301-.3107201.534388-.46612.80151-.09.154767-.2850604.200688-.4330503.115239-.14799-.08545-.2072702-.276173-.1172999-.430987l.4661201-.801511c.084189-.14582.2772945-.206353.43511-.115238zm.8924505.779813c.1495565.08635.20612.275656.11679.429436l-.2335801.402047c-.0899.154827-.2864901.201195-.4335601.116273-.1470801-.08492-.2066701-.277673-.11679-.432537l.2330599-.401529c.082346-.142627.2717219-.207428.4340803-.11369z" font-variant-ligatures="normal" font-variant-position="normal" font-variant-caps="normal" font-variant-numeric="normal" font-variant-alternates="normal" font-feature-settings="normal" text-indent="0" text-align="start" text-decoration-line="none" text-decoration-style="solid" text-decoration-color="rgb(0,0,0)" text-transform="none" text-orientation="mixed" white-space="normal" shape-padding="0" isolation="auto" mix-blend-mode="normal" solid-color="rgb(0,0,0)" solid-opacity="1" vector-effect="none" fill="#ffffff" data-original="#000000" class=""></path></g></g></svg>
