<?xml version="1.0" encoding="UTF-8"?>
<svg class="" width="30" height="30" enable-background="new 0 0 512 512" version="1.1" viewBox="0 0 16.933 16.933" xml:space="preserve" xmlns="http://www.w3.org/2000/svg"><g xmlns="http://www.w3.org/2000/svg"><path class="" d="m3.1735 3.92e-6c-1.7519 0-3.1735 1.4242-3.1735 3.174 0 1.7498 1.4178 3.174 3.1735 3.174 1.7556 0 3.176-1.4242 3.176-3.174 0-1.7498-1.4242-3.174-3.176-3.174zm10.584 0c-1.7519 0-3.1735 1.4242-3.1735 3.174 0 1.7498 1.4178 3.174 3.1735 3.174 1.7556 0 3.176-1.4242 3.176-3.174 0-1.7498-1.4242-3.174-3.176-3.174zm-10.584 0.52969c1.4556 0 2.6469 1.1805 2.6469 2.6443 0 1.4638-1.1955 2.6464-2.6469 2.6464-1.4514 0-2.6443-1.1826-2.6443-2.6464 0-1.4638 1.1887-2.6443 2.6443-2.6443zm10.584 0c1.4556 0 2.6469 1.1805 2.6469 2.6443 0 1.4638-1.1955 2.6464-2.6469 2.6464-1.4514 0-2.6443-1.1826-2.6443-2.6464 0-1.4638 1.1887-2.6443 2.6443-2.6443zm-10.583 0.39636c-0.12967-7.594e-4 -0.26562 0.08632-0.26562 0.26407v0.25322c-0.51835 0.11675-0.91208 0.56837-0.91208 1.1224 0 0.3901 0.19689 0.61309 0.43356 0.72865 0.23667 0.11556 0.4886 0.13231 0.71675 0.15606 0.22816 0.023799 0.43343 0.05441 0.53899 0.10594 0.0653 0.0363 0.13694 0.07141 0.13694 0.25167 0 0.33782-0.2782 0.61984-0.63872 0.62322-0.30264-0.0059-0.5401-0.19181-0.64079-0.52349-0.11606-0.33331-0.60147-0.17877-0.50539 0.1602 0.17025 0.52737 0.5245 0.77036 0.87074 0.85939v0.23255c0 0.35808 0.52917 0.34471 0.52917 0v-0.22996c0.51941-0.11637 0.91415-0.57328 0.91416-1.1219 0-0.38492-0.1969-0.61101-0.43357-0.72658-0.23667-0.11556-0.48859-0.13231-0.71675-0.15606-0.22815-0.023799-0.43343-0.05591-0.53899-0.10749-0.0785-0.0383-0.13694-0.08911-0.13694-0.25218 0-0.34401 0.27821-0.61364 0.63872-0.61702 0.32437 0.0126 0.53494 0.18303 0.64079 0.5178 0.113 0.32692 0.59618 0.18791 0.50591-0.15865-0.131-0.4143-0.40965-0.74123-0.87333-0.85887v-0.2589c0-0.17468-0.13388-0.26331-0.26355-0.26407zm10.584 0c-0.12967-7.594e-4 -0.26561 0.08632-0.26561 0.26407v0.25322c-0.51835 0.11675-0.91209 0.56837-0.91209 1.1224 0 0.3901 0.19689 0.61309 0.43356 0.72865 0.23667 0.11556 0.4886 0.13231 0.71675 0.15606 0.22816 0.023799 0.43343 0.05441 0.53899 0.10594 0.0653 0.0363 0.13694 0.07141 0.13694 0.25167 0 0.33782-0.2782 0.61984-0.63872 0.62322-0.30264-0.0059-0.5401-0.19181-0.64079-0.52349-0.11606-0.33331-0.60147-0.17877-0.50539 0.1602 0.17025 0.52737 0.52451 0.77036 0.87075 0.85939v0.23255c0 0.35808 0.52916 0.34471 0.52916 0v-0.22996c0.51941-0.11637 0.91415-0.57328 0.91416-1.1219 0-0.38492-0.1969-0.61101-0.43357-0.72658-0.23667-0.11556-0.48859-0.13231-0.71675-0.15606-0.22815-0.023799-0.43342-0.05591-0.53898-0.10749-0.0785-0.0383-0.13695-0.08911-0.13695-0.25218 0-0.34401 0.27821-0.61364 0.63872-0.61702 0.32437 0.0126 0.53494 0.18303 0.64079 0.5178 0.113 0.32692 0.59618 0.18791 0.50591-0.15865-0.131-0.4143-0.40965-0.74123-0.87333-0.85887v-0.2589c0-0.17468-0.13388-0.26331-0.26355-0.26407zm-4.8168 1.248 0.2067 0.20723h-2.0035c-0.35347 0-0.35347 0.52917 0 0.52917h2.6443c0.2353 0 0.35422-0.28502 0.18758-0.45114l-0.66197-0.65992c-0.25096-0.25018-0.6207 0.12644-0.3731 0.37466zm-1.7968 1.2656c-0.23773 0-0.35622 0.28564-0.18759 0.45321l0.65474 0.65061c0.26109 0.25944 0.63574-0.11678 0.37414-0.37569l-0.20102-0.19896h2.004c0.35465 0 0.35465-0.52917 0-0.52917zm6.4952 3.6799-1.2123 0.69609c-0.33928 0.19481-0.48443 0.62035-0.28836 0.95809l0.0315 0.05426c-0.5512 0.19599-1.1228 0.15012-1.541 0.07958-0.68378-0.1209-1.4724-0.14654-2.1771-0.06615-0.53259 0.05764-1.3805 0.22719-1.757 0.70022l-1.696-0.33693 0.024299-0.04186c0.20061-0.34559 0.088605-0.78951-0.26717-0.99375l-1.2108-0.69506c-0.35213-0.20214-0.79877-0.07943-0.99942 0.26614l-2.4479 4.2158c-0.20456 0.3523-0.078763 0.79478 0.26769 0.99375l1.2103 0.69506c0.34966 0.20081 0.77262 0.07009 0.95601-0.20051l0.68265 0.50954c-0.21896 0.40485-0.071 0.90344 0.32401 1.1302 0.1161 0.06664 0.237 0.10154 0.36328 0.10904-0.0573 0.33812 0.10006 0.69009 0.41393 0.87024 0.25135 0.14427 0.54667 0.14641 0.79168 0.02842 0.0832 0.16151 0.18522 0.26456 0.33383 0.35037 0.25114 0.14416 0.54782 0.14612 0.79272 0.02842 0.0717 0.14335 0.18453 0.26631 0.33279 0.3514 0.4024 0.23097 0.92511 0.09109 1.1581-0.31006l0.12764-0.21963c0.29072 0.16757 0.58136 0.3346 0.8723 0.50178 0.40625 0.23457 0.92356 0.09264 1.1565-0.30851 0.0578-0.09949 0.0919-0.20146 0.10542-0.30955 0.39661 0.17891 0.86305 0.03044 1.0821-0.34675 0.067-0.11536 0.10433-0.23669 0.11214-0.36226 0.34025 0.05832 0.69075-0.09218 0.87281-0.40566 0.0577-0.09934 0.0955-0.20524 0.10904-0.31316 0.3977 0.17914 0.8621 0.03082 1.0811-0.34624 0.18597-0.30336 0.10144-0.64315 0.0548-0.73846l1.0645-1.0578c0.19815 0.34324 0.64444 0.42805 0.98134 0.23461l1.2123-0.69609c0.33895-0.19462 0.48293-0.61936 0.2868-0.95706-0.74249-1.2784-1.4881-2.5551-2.2273-3.8355-0.17956-0.311-0.60736-0.44438-0.97721-0.23202zm0.51987 0.49455c0.04489 0.077734 1.4844 2.557 2.2267 3.8355 0.03891 0.06701 6e-3 0.17948-0.0946 0.2372-0.40425 0.23198-1.1381 0.65346-1.2123 0.69609-0.10136 0.05818-0.21533 0.03033-0.25425-0.03669-0.043-0.07404-1.4749-2.5634-2.2278-3.836-0.03947-0.066726-9e-3 -0.17681 0.0951-0.23668 0.40408-0.23239 1.2128-0.69609 1.2128-0.69609 0.11545-0.066262 0.21786-0.026358 0.25427 0.03669zm-10.879 0.31575c0.40377 0.23186 1.1293 0.64851 1.2113 0.69557 0.0977 0.0561 0.13102 0.17466 0.0734 0.27389-0.816 1.4052-2.4012 4.1339-2.4484 4.2158-0.053403 0.09251-0.17348 0.12976-0.2744 0.07183 0 0-0.80712-0.46348-1.2108-0.69505-0.0912-0.05232-0.13205-0.1731-0.0744-0.27234 0.0473-0.08137 1.6354-2.8086 2.4479-4.2158 0.056759-0.098311 0.17903-0.12924 0.2754-0.073898zm9.1591 1.3601c0.5566 0.95328 1.0942 1.8894 1.6443 2.8464-0.3558 0.35583-0.84812 0.84346-1.1286 1.124l-4.702-2.6981c-0.11829-0.06787-0.2691-0.03544-0.34778 0.07597-0.30553 0.43259-0.78364 0.87338-1.1798 1.1038-0.19806 0.11522-0.3729 0.17327-0.46354 0.17467-0.0608 9.26e-4 -0.0924-6.09e-4 -0.11007-0.07545-5e-3 -0.02154-5e-3 -0.14795 0.0424-0.31058 0.0486-0.17606 0.13608-0.39102 0.24391-0.60927 0.21564-0.43651 0.54501-0.92793 0.70125-1.0842 0.23447-0.23449 0.7265-0.3965 1.373-0.47026 0.64654-0.07376 1.3981-0.04835 2.0252 0.06253 0.69266 0.12247 1.2246 0.06266 1.5875-0.03359 0.10634-0.028493 0.20995-0.060679 0.31417-0.10594zm-7.721 0.39895 1.6288 0.32401c-0.13419 0.20672-0.26707 0.43678-0.38344 0.67232-0.11821 0.23927-0.21908 0.47996-0.28112 0.70487-0.0543 0.20269-0.10188 0.44204-0.0186 0.66302 0.0977 0.25916 0.32745 0.40209 0.60616 0.39223 0.2437-0.0063 0.4939-0.11239 0.72089-0.24443 0.41799-0.24316 0.86062-0.64013 1.1999-1.0645l4.4788 2.5704c0.15679 0.08998 0.20377 0.28059 0.1173 0.42944-0.08648 0.14887-0.27833 0.20537-0.43511 0.11524-1.0303-0.59228-2.6285-1.5064-3.0804-1.7674-0.30456-0.17585-0.57028 0.28288-0.26355 0.45889l2.4748 1.4201c0.15685 0.09001 0.20086 0.28195 0.11524 0.42944-0.08562 0.14747-0.27887 0.2054-0.43564 0.11524-0.70596-0.40599-1.4126-0.81135-2.1192-1.217-0.30619-0.17576-0.56981 0.28377-0.26355 0.45941 0.57249 0.32832 1.1456 0.65605 1.7177 0.98496 0.15603 0.09024 0.19967 0.2804 0.1142 0.4284-0.08548 0.14803-0.2789 0.20545-0.43563 0.11524-0.47086-0.27101-0.9426-0.5399-1.4118-0.81081-0.30573-0.17653-0.5699 0.28342-0.2651 0.45941 0.26729 0.15433 0.54052 0.30905 0.80771 0.46251 0.15682 0.09007 0.20137 0.28341 0.11627 0.42995-0.0851 0.14654-0.27951 0.20561-0.43615 0.11524-0.30798-0.17768-0.61376-0.35285-0.92191-0.5302 0.0443-0.32896-0.10593-0.6664-0.41599-0.84544-0.14799-0.085451-0.31185-0.12231-0.47233-0.11266-0.019701-0.27005-0.16961-0.52358-0.42064-0.66767-0.14806-0.08498-0.3108-0.1225-0.47129-0.11266-0.019701-0.27005-0.17065-0.52358-0.42168-0.66767-0.37795-0.21694-0.85748-0.11549-1.1126 0.2372-0.0658-0.08638-0.14679-0.15671-0.2465-0.21394-0.32611-0.1883-0.72372-0.13597-0.98547 0.09715l-0.7152-0.53331zm0.87901 4.1677c0.15027 0.08676 0.20513 0.27613 0.11524 0.43099-0.23864 0.41109-0.49211 0.84705-0.69918 1.2036-0.0899 0.15483-0.28162 0.20105-0.43201 0.11472-0.1504-0.08632-0.20764-0.27504-0.11783-0.42995 0.24298-0.41913 0.44952-0.77487 0.69867-1.2046 0.083596-0.14479 0.27207-0.20885 0.43511-0.11472zm-1.3596 0.02326c0.15048 0.08688 0.20673 0.27461 0.11679 0.42944l-0.11679 0.20102c-0.0899 0.15483-0.28475 0.2017-0.43357 0.11627-0.14882-0.08542-0.20644-0.27702-0.11679-0.43202l0.11628-0.20102c0.083585-0.14477 0.27147-0.20757 0.43408-0.11369zm2.2526 0.75707c0.14816 0.08554 0.20475 0.2762 0.11524 0.43099-0.15512 0.2673-0.31072 0.53439-0.46612 0.80151-0.09 0.15477-0.28506 0.20069-0.43305 0.11524-0.14799-0.08545-0.20727-0.27617-0.1173-0.43099l0.46612-0.80151c0.084189-0.14582 0.27729-0.20635 0.43511-0.11524zm0.89245 0.77981c0.14956 0.08635 0.20612 0.27566 0.11679 0.42944l-0.23358 0.40205c-0.0899 0.15483-0.28649 0.2012-0.43356 0.11627-0.14708-0.08492-0.20667-0.27767-0.11679-0.43254l0.23306-0.40153c0.082346-0.14263 0.27172-0.20743 0.43408-0.11369z" solid-color="rgb(0,0,0)" data-original="#000000" font-feature-settings="normal" font-variant-alternates="normal" font-variant-caps="normal" font-variant-ligatures="normal" font-variant-numeric="normal" font-variant-position="normal" isolation="auto" mix-blend-mode="normal" shape-padding="0" text-decoration-color="rgb(0,0,0)" text-decoration-line="none" text-decoration-style="solid" text-indent="0" text-orientation="mixed" text-transform="none" white-space="normal"/></g></svg>
